HIERARCHY
ROOT hip
{
  OFFSET 0 0 0
  CHANNELS 6 Xposition Yposition Zposition Zrotation Yrotation Xrotation
  JOINT abdomen
  {
    OFFSET 0 20.6881 -0.73152
    CHANNELS 3 Zrotation Xrotation Yrotation
    JOINT chest
    {
      OFFSET 0 11.7043 -0.48768
      CHANNELS 3 Zrotation Xrotation Yrotation
      JOINT neck
      {
        OFFSET 0 22.1894 -2.19456
        CHANNELS 3 Zrotation Xrotation Yrotation
        JOINT head
        {
          OFFSET -0.24384 7.07133 1.2192
          CHANNELS 3 Zrotation Xrotation Yrotation
          JOINT leftEye
          {
            OFFSET 4.14528 8.04674 8.04672
            CHANNELS 3 Zrotation Xrotation Yrotation
            End Site
            {
              OFFSET 1 0 0
            }
          }
          JOINT rightEye
          {
            OFFSET -3.6576 8.04674 8.04672
            CHANNELS 3 Zrotation Xrotation Yrotation
            End Site
            {
              OFFSET 1 0 0
            }
          }
        }
      }
      JOINT rCollar
      {
        OFFSET -2.68224 19.2634 -4.8768
        CHANNELS 3 Zrotation Xrotation Yrotation
        JOINT rShldr
        {
          OFFSET -8.77824 -1.95073 1.46304
          CHANNELS 3 Zrotation Xrotation Yrotation
          JOINT rForeArm
          {
            OFFSET -28.1742 -1.7115 0.48768
            CHANNELS 3 Zrotation Xrotation Yrotation
            JOINT rHand
            {
              OFFSET -22.5879 0.773209 7.07136
              CHANNELS 3 Zrotation Xrotation Yrotation
              JOINT rThumb1
              {
                OFFSET -1.2192 -0.487915 3.41376
                CHANNELS 3 Zrotation Xrotation Yrotation
                JOINT rThumb2
                {
                  OFFSET -3.37035 -0.52449 3.41376
                  CHANNELS 3 Zrotation Xrotation Yrotation
                  End Site
                  {
                    OFFSET -1.78271 -1.18214 1.43049
                  }
                }
              }
              JOINT rIndex1
              {
                OFFSET -7.75947 0.938293 5.60832
                CHANNELS 3 Zrotation Xrotation Yrotation
                JOINT rIndex2
                {
                  OFFSET -2.54057 -0.884171 1.56538
                  CHANNELS 3 Zrotation Xrotation Yrotation
                  End Site
                  {
                    OFFSET -1.62519 -0.234802 1.16502
                  }
                }
              }
              JOINT rMid1
              {
                OFFSET -8.24714 1.18213 3.41376
                CHANNELS 3 Zrotation Xrotation Yrotation
                JOINT rMid2
                {
                  OFFSET -3.10165 -0.590103 1.0647
                  CHANNELS 3 Zrotation Xrotation Yrotation
                  End Site
                  {
                    OFFSET -2.48547 -0.328903 0.83742
                  }
                }
              }
              JOINT rRing1
              {
                OFFSET -8.82822 0.546677 1.51678
                CHANNELS 3 Zrotation Xrotation Yrotation
                JOINT rRing2
                {
                  OFFSET -2.60934 -0.819778 -0.0198488
                  CHANNELS 3 Zrotation Xrotation Yrotation
                  End Site
                  {
                    OFFSET -2.33842 -0.294052 0.168128
                  }
                }
              }
              JOINT rPinky1
              {
                OFFSET -8.27202 -0.0477905 -0.4584
                CHANNELS 3 Zrotation Xrotation Yrotation
                JOINT rPinky2
                {
                  OFFSET -1.82734 -0.647385 -0.700984
                  CHANNELS 3 Zrotation Xrotation Yrotation
                  End Site
                  {
                    OFFSET -1.69225 -0.51767 -0.607171
                  }
                }
              }
            }
          }
        }
      }
      JOINT lCollar
      {
        OFFSET 2.68224 19.2634 -4.8768
        CHANNELS 3 Zrotation Xrotation Yrotation
        JOINT lShldr
        {
          OFFSET 8.77824 -1.95073 1.46304
          CHANNELS 3 Zrotation Xrotation Yrotation
          JOINT lForeArm
          {
            OFFSET 28.1742 -1.7115 0.48768
            CHANNELS 3 Zrotation Xrotation Yrotation
            JOINT lHand
            {
              OFFSET 22.5879 0.773209 7.07136
              CHANNELS 3 Zrotation Xrotation Yrotation
              JOINT lThumb1
              {
                OFFSET 1.2192 -0.487915 3.41376
                CHANNELS 3 Zrotation Xrotation Yrotation
                JOINT lThumb2
                {
                  OFFSET 3.37035 -0.52449 3.41376
                  CHANNELS 3 Zrotation Xrotation Yrotation
                  End Site
                  {
                    OFFSET 1.78271 -1.18214 1.43049
                  }
                }
              }
              JOINT lIndex1
              {
                OFFSET 7.75947 0.938293 5.60832
                CHANNELS 3 Zrotation Xrotation Yrotation
                JOINT lIndex2
                {
                  OFFSET 2.54057 -0.884171 1.56538
                  CHANNELS 3 Zrotation Xrotation Yrotation
                  End Site
                  {
                    OFFSET 1.62519 -0.234802 1.16502
                  }
                }
              }
              JOINT lMid1
              {
                OFFSET 8.24714 1.18213 3.41376
                CHANNELS 3 Zrotation Xrotation Yrotation
                JOINT lMid2
                {
                  OFFSET 3.10165 -0.590103 1.0647
                  CHANNELS 3 Zrotation Xrotation Yrotation
                  End Site
                  {
                    OFFSET 2.48547 -0.328903 0.83742
                  }
                }
              }
              JOINT lRing1
              {
                OFFSET 8.82822 0.546677 1.51678
                CHANNELS 3 Zrotation Xrotation Yrotation
                JOINT lRing2
                {
                  OFFSET 2.60934 -0.819778 -0.0198488
                  CHANNELS 3 Zrotation Xrotation Yrotation
                  End Site
                  {
                    OFFSET 2.33842 -0.294052 0.168128
                  }
                }
              }
              JOINT lPinky1
              {
                OFFSET 8.27202 -0.0477905 -0.4584
                CHANNELS 3 Zrotation Xrotation Yrotation
                JOINT lPinky2
                {
                  OFFSET 1.82734 -0.647385 -0.700984
                  CHANNELS 3 Zrotation Xrotation Yrotation
                  End Site
                  {
                    OFFSET 1.69225 -0.51767 -0.607171
                  }
                }
              }
            }
          }
        }
      }
    }
  }
  JOINT rButtock
  {
    OFFSET -8.77824 4.35084 1.2192
    CHANNELS 3 Zrotation Xrotation Yrotation
    JOINT rThigh
    {
      OFFSET 0 -1.70687 -2.19456
      CHANNELS 3 Zrotation Xrotation Yrotation
      JOINT rShin
      {
        OFFSET 0 -36.8199 0.73152
        CHANNELS 3 Zrotation Xrotation Yrotation
        JOINT rFoot
        {
          OFFSET 0.73152 -45.1104 -5.12064
          CHANNELS 3 Zrotation Xrotation Yrotation
          End Site
          {
            OFFSET -1.1221 -3.69964 12.103
          }
        }
      }
    }
  }
  JOINT lButtock
  {
    OFFSET 8.77824 4.35084 1.2192
    CHANNELS 3 Zrotation Xrotation Yrotation
    JOINT lThigh
    {
      OFFSET 0 -1.70687 -2.19456
      CHANNELS 3 Zrotation Xrotation Yrotation
      JOINT lShin
      {
        OFFSET 0 -36.8199 0.73152
        CHANNELS 3 Zrotation Xrotation Yrotation
        JOINT lFoot
        {
          OFFSET -0.73152 -45.1104 -5.12064
          CHANNELS 3 Zrotation Xrotation Yrotation
          End Site
          {
            OFFSET 1.1221 -3.69964 12.103
          }
        }
      }
    }
  }
}
MOTION
Frames:	4
Frame Time:	0.00833333
1.28358 75.3595 -22.1401 -1.1612 8.2904 35.4862 1.36392 51.9988 10.4113 2.51562 -1.25869 3.1544 -3.24709 -2.79549 -4.74786 -13.4779 -5.92831 -8.94234 -0.0 0.0 0.0 -0.0 0.0 0.0 1.5751e-13 -2.56641e-13 1.46753e-13 34.9108 -7.03134 71.6846 -10.817 -4.65286 19.3428 -0.0753098 -7.80541 -1.10388 -5.35109e-09 1.3961e-09 1.49016e-09 -9.25775e-09 2.42585e-09 2.55535e-09 -5.35108e-09 1.39609e-09 1.49016e-09 7.73091 5.47488 0.417314 -5.35109e-09 1.39609e-09 1.49016e-09 2.90554 0.965183 0.102902 -5.35109e-09 1.39609e-09 1.49015e-09 10.2786 0.731801 0.0259123 -5.3511e-09 1.39609e-09 1.49015e-09 2.22167 -0.733487 -0.20892 1.57375e-13 -2.56622e-13 1.46653e-13 -19.4139 54.7818 -59.6649 27.9288 -30.2034 -67.5734 0.0126841 -3.21378 0.452147 1.18524e-09 -3.27953e-10 -1.29433e-09 2.05573e-09 -5.67048e-10 -2.24311e-09 1.18523e-09 -3.27957e-10 -1.29431e-09 -7.73091 5.47488 -0.417314 1.18523e-09 -3.27961e-10 -1.29432e-09 -2.90554 0.965183 -0.102902 1.18523e-09 -3.27962e-10 -1.29432e-09 -10.2786 0.731801 -0.0259123 1.18524e-09 -3.27961e-10 -1.29432e-09 -2.22167 -0.733487 0.20892 -2.03217e-16 0.0 -3.88251e-19 -33.4052 -68.0706 -45.9579 -0.616795 49.6733 0.89832 -0.869492 -7.66022 -3.74178 2.03217e-16 0.0 3.88251e-19 17.244 -76.4813 13.958 0.212599 36.7805 -0.666101 0.0311575 3.11637 -14.8284
1.50133 75.2609 -22.1278 -1.0401 8.2445 36.0473 1.64497 52.5631 10.0172 3.06402 -0.934524 3.08317 -4.19092 -3.26395 -4.88751 -13.37 -6.47258 -8.95253 -0.0 0.0 0.0 -0.0 0.0 0.0 5.81574e-14 -3.3418e-13 1.38525e-13 34.4692 -8.21567 72.5494 -10.788 -4.63396 19.2881 -0.0812441 -8.13698 -1.1513 -5.94554e-09 1.32939e-09 2.38596e-09 -1.02888e-08 2.31477e-09 4.09875e-09 -5.94554e-09 1.32938e-09 2.38596e-09 7.73091 5.47488 0.417314 -5.94554e-09 1.32938e-09 2.38596e-09 2.90554 0.965183 0.102902 -5.94554e-09 1.32938e-09 2.38595e-09 10.2786 0.731801 0.0259123 -5.94555e-09 1.32938e-09 2.38596e-09 2.22167 -0.733487 -0.20892 5.80608e-14 -3.34163e-13 1.38427e-13 -20.4311 54.3364 -59.1557 27.991 -30.5598 -68.1461 0.00824866 -2.77079 0.389664 2.16624e-09 -4.7896e-10 -2.58442e-09 3.75104e-09 -8.27679e-10 -4.47169e-09 2.16624e-09 -4.78962e-10 -2.58441e-09 -7.73091 5.47488 -0.417314 2.16624e-09 -4.78965e-10 -2.58441e-09 -2.90554 0.965183 -0.102902 2.16623e-09 -4.78966e-10 -2.58442e-09 -10.2786 0.731801 -0.0259123 2.16624e-09 -4.78966e-10 -2.58442e-09 -2.22167 -0.733487 0.20892 -2.03217e-16 0.0 -3.88251e-19 -35.2968 -68.5097 -47.6329 -0.631638 50.1407 0.920935 -0.864128 -7.80728 -3.68576 2.03217e-16 0.0 3.88251e-19 17.6378 -77.2746 14.925 0.222782 37.2632 -0.678333 0.041608 3.21471 -15.2224
1.73273 75.1365 -22.1068 -0.8861 8.2008 36.5758 1.86599 53.1889 9.68811 3.63397 -0.63697 3.01896 -5.18285 -3.77067 -5.04284 -13.219 -6.97073 -8.95386 -0.0 0.0 0.0 -0.0 0.0 0.0 -8.34266e-14 -4.28075e-13 1.12981e-13 33.9573 -9.41056 73.3922 -10.7878 -4.63388 19.2877 -0.0922261 -8.67851 -1.22903 -5.95274e-09 1.05912e-09 3.27407e-09 -1.03038e-08 1.85103e-09 5.62987e-09 -5.95273e-09 1.05911e-09 3.27407e-09 7.73091 5.47488 0.417314 -5.95274e-09 1.05911e-09 3.27407e-09 2.90554 0.965183 0.102902 -5.95273e-09 1.05911e-09 3.27407e-09 10.2786 0.731801 0.0259123 -5.95275e-09 1.05912e-09 3.27407e-09 2.22167 -0.733487 -0.20892 -8.34587e-14 -4.28066e-13 1.12857e-13 -21.4577 53.9264 -58.6547 28.0479 -30.9052 -68.6968 0.00318309 -2.01449 0.283161 3.2187e-09 -5.68835e-10 -3.90605e-09 5.56799e-09 -9.82736e-10 -6.75346e-09 3.2187e-09 -5.68834e-10 -3.90603e-09 -7.73091 5.47488 -0.417314 3.2187e-09 -5.68836e-10 -3.90604e-09 -2.90554 0.965183 -0.102902 3.21869e-09 -5.68837e-10 -3.90604e-09 -10.2786 0.731801 -0.0259123 3.21871e-09 -5.68838e-10 -3.90605e-09 -2.22167 -0.733487 0.20892 -2.03217e-16 0.0 -3.88251e-19 -37.0518 -68.8975 -49.1444 -0.645518 50.5675 0.941804 -0.859616 -7.9065 -3.64313 2.03217e-16 0.0 3.88251e-19 18.1333 -77.9936 16.0316 0.23277 37.7288 -0.689602 0.0379248 3.25277 -15.56
1.97999 75.0278 -22.0683 -0.6624 8.2298 37.0382 2.07133 53.8269 9.37547 4.20942 -0.343402 2.95489 -6.21543 -4.29898 -5.2184 -13.0161 -7.43822 -8.95243 -0.0 0.0 0.0 -0.0 0.0 0.0 -2.15194e-13 -4.90369e-13 7.83689e-14 33.4288 -10.5925 74.2106 -10.8022 -4.64322 19.3147 -0.104786 -9.22169 -1.30734 -5.41372e-09 6.89654e-10 3.84454e-09 -9.37316e-09 1.21384e-09 6.61465e-09 -5.41372e-09 6.89647e-10 3.84453e-09 7.73091 5.47488 0.417314 -5.41373e-09 6.89646e-10 3.84453e-09 2.90554 0.965183 0.102902 -5.41372e-09 6.89647e-10 3.84454e-09 10.2786 0.731801 0.0259123 -5.41373e-09 6.89651e-10 3.84454e-09 2.22167 -0.733487 -0.20892 -2.15164e-13 -4.90369e-13 7.82066e-14 -22.4783 53.5256 -58.1731 28.0992 -31.2387 -69.2285 0.000549402 -1.16824 0.164165 3.96312e-09 -5.94423e-10 -4.85331e-09 6.85206e-09 -1.02672e-09 -8.38791e-09 3.96312e-09 -5.9442e-10 -4.8533e-09 -7.73091 5.47488 -0.417314 3.96312e-09 -5.94422e-10 -4.8533e-09 -2.90554 0.965183 -0.102902 3.9631e-09 -5.94421e-10 -4.8533e-09 -10.2786 0.731801 -0.0259123 3.96312e-09 -5.94423e-10 -4.85331e-09 -2.22167 -0.733487 0.20892 -2.03217e-16 0.0 -3.88251e-19 -38.8079 -69.251 -50.6377 -0.659231 50.9815 0.962456 -0.857303 -8.0041 -3.60981 2.03217e-16 0.0 3.88251e-19 18.6838 -78.6732 17.2166 0.242637 38.1809 -0.700287 0.0234578 3.25081 -15.881
